<svg width="41" height="41" viewBox="0 0 41 41" fill="none" xmlns="http://www.w3.org/2000/svg">
<g clip-path="url(#clip0_17_84098)">
<path d="M11.7468 33.8176C13.8643 36.4455 16.7454 38.3211 19.9754 39.1744C23.2055 40.0277 26.618 39.8146 29.7216 38.5658C32.8253 37.3171 35.4601 35.097 37.2468 32.2253C39.0334 29.3535 39.8799 25.9781 39.6642 22.585C39.4485 19.1919 38.1818 15.956 36.0465 13.3431C33.9112 10.7302 31.0174 8.87506 27.7816 8.04472C24.5457 7.21439 21.1348 7.45166 18.0398 8.72241C14.9447 9.99315 12.3251 12.2318 10.5581 15.1162" stroke="#162340" stroke-width="1.18933" stroke-linecap="round" stroke-linejoin="round"/>
<path d="M17.5494 33.8174C19.437 35.046 21.6274 35.7052 23.8673 35.7187C26.1072 35.7322 28.305 35.0994 30.2068 33.8936C32.1086 32.6878 33.6367 30.9581 34.6143 28.9045C35.592 26.8509 35.9794 24.5573 35.7316 22.2889C35.4838 20.0204 34.6111 17.8697 33.2143 16.0854C31.8175 14.3012 29.9536 12.9561 27.8382 12.2059C25.7227 11.4556 23.4421 11.3308 21.2599 11.8457C19.0778 12.3607 17.0832 13.4945 15.5068 15.116" stroke="#162340" stroke-width="1.18933" stroke-linecap="round" stroke-linejoin="round"/>
<path d="M23.9355 25.5947C25.0034 25.5947 25.8691 24.7125 25.8691 23.6244C25.8691 22.5362 25.0034 21.6541 23.9355 21.6541C22.8676 21.6541 22.002 22.5362 22.002 23.6244C22.002 24.7125 22.8676 25.5947 23.9355 25.5947Z" stroke="#162340" stroke-width="1.18933" stroke-linecap="round" stroke-linejoin="round"/>
<path d="M20.1157 15.6155L23.091 21.8525" stroke="#162340" stroke-width="1.18933" stroke-linecap="round" stroke-linejoin="round"/>
<path d="M23.9355 7.55668V3.97681" stroke="#162340" stroke-width="1.18933" stroke-linecap="round" stroke-linejoin="round"/>
<path d="M28.6046 0.693848H19.2676V3.86578H28.6046V0.693848Z" stroke="#162340" stroke-width="1.18933" stroke-linecap="round" stroke-linejoin="round"/>
<path d="M35.085 12.2632L37.57 9.73096" stroke="#162340" stroke-width="1.18933" stroke-linecap="round" stroke-linejoin="round"/>
<path d="M35.6201 7.7439L39.52 11.7178" stroke="#162340" stroke-width="1.18933" stroke-linecap="round" stroke-linejoin="round"/>
<path d="M15.4114 17.7925H3.17676" stroke="#162340" stroke-width="1.18933" stroke-linecap="round" stroke-linejoin="round"/>
<path d="M18.632 22.241H6.396" stroke="#162340" stroke-width="1.18933" stroke-linecap="round" stroke-linejoin="round"/>
<path d="M17.1424 26.6895H4.90771" stroke="#162340" stroke-width="1.18933" stroke-linecap="round" stroke-linejoin="round"/>
<path d="M14.5262 31.1379H0.680664" stroke="#162340" stroke-width="1.18933" stroke-linecap="round" stroke-linejoin="round"/>
</g>
<defs>
<clipPath id="clip0_17_84098">
<rect width="40.3846" height="40.3846" fill="white"/>
</clipPath>
</defs>
</svg>
