<svg width="32" height="32" viewBox="0 0 32 32" fill="none" xmlns="http://www.w3.org/2000/svg">
<rect y="0.000488281" width="32" height="31.999" rx="8" fill="white"/>
<path d="M16.0006 2.99902C12.4698 2.99902 12.0267 3.01446 10.64 3.07757C9.25594 3.14095 8.31122 3.36007 7.48459 3.68156C6.62952 4.01363 5.90418 4.45782 5.18155 5.18072C4.45839 5.90334 4.01419 6.62868 3.68105 7.48348C3.35874 8.31038 3.13935 9.25537 3.07705 10.6389C3.01503 12.0256 2.99878 12.469 2.99878 15.9998C2.99878 19.5306 3.01449 19.9723 3.07733 21.3591C3.14098 22.7431 3.36009 23.6879 3.68132 24.5145C4.01365 25.3696 4.45785 26.0949 5.18074 26.8175C5.9031 27.5407 6.62843 27.986 7.48296 28.318C8.31014 28.6395 9.25513 28.8586 10.6389 28.922C12.0256 28.9851 12.4685 29.0006 15.999 29.0006C19.5301 29.0006 19.9718 28.9851 21.3586 28.922C22.7426 28.8586 23.6884 28.6395 24.5156 28.318C25.3704 27.986 26.0947 27.5407 26.817 26.8175C27.5402 26.0949 27.9844 25.3696 28.3175 24.5148C28.6371 23.6879 28.8565 22.7429 28.9215 21.3594C28.9838 19.9726 29.0001 19.5306 29.0001 15.9998C29.0001 12.469 28.9838 12.0259 28.9215 10.6391C28.8565 9.2551 28.6371 8.31038 28.3175 7.48375C27.9844 6.62868 27.5402 5.90334 26.817 5.18072C26.0938 4.45755 25.3707 4.01335 24.5148 3.68156C23.686 3.36007 22.7407 3.14095 21.3567 3.07757C19.9699 3.01446 19.5284 2.99902 15.9966 2.99902H16.0006ZM14.8344 5.34187C15.1805 5.34133 15.5667 5.34187 16.0006 5.34187C19.4718 5.34187 19.8833 5.35433 21.254 5.41663C22.5216 5.47459 23.2096 5.68639 23.6678 5.86434C24.2745 6.09998 24.7071 6.38166 25.1618 6.83669C25.6169 7.29172 25.8986 7.72507 26.1347 8.33178C26.3127 8.78951 26.5248 9.47747 26.5825 10.745C26.6447 12.1155 26.6583 12.5272 26.6583 15.9968C26.6583 19.4664 26.6447 19.8781 26.5825 21.2486C26.5245 22.5162 26.3127 23.2041 26.1347 23.6619C25.8991 24.2686 25.6169 24.7006 25.1618 25.1553C24.7068 25.6103 24.2748 25.892 23.6678 26.1277C23.2101 26.3064 22.5216 26.5177 21.254 26.5757C19.8835 26.6379 19.4718 26.6515 16.0006 26.6515C12.5292 26.6515 12.1177 26.6379 10.7472 26.5757C9.47966 26.5171 8.79171 26.3053 8.33316 26.1274C7.72646 25.8918 7.2931 25.6101 6.83807 25.155C6.38304 24.7 6.10136 24.2677 5.86518 23.6608C5.68723 23.203 5.47516 22.5151 5.41746 21.2475C5.35517 19.877 5.34271 19.4653 5.34271 15.9936C5.34271 12.5218 5.35517 12.1123 5.41746 10.7418C5.47543 9.47422 5.68723 8.78626 5.86518 8.32799C6.10082 7.72128 6.38304 7.28792 6.83807 6.8329C7.2931 6.37787 7.72646 6.09619 8.33316 5.86001C8.79144 5.68124 9.47966 5.46998 10.7472 5.41175C11.9466 5.35758 12.4113 5.34133 14.8344 5.33862V5.34187ZM22.9403 7.50054C22.079 7.50054 21.3802 8.19852 21.3802 9.06009C21.3802 9.92139 22.079 10.6202 22.9403 10.6202C23.8016 10.6202 24.5004 9.92139 24.5004 9.06009C24.5004 8.19879 23.8016 7.50054 22.9403 7.50054ZM16.0006 9.32336C12.3136 9.32336 9.3242 12.3127 9.3242 15.9998C9.3242 19.6869 12.3136 22.6749 16.0006 22.6749C19.6877 22.6749 22.676 19.6869 22.676 15.9998C22.676 12.3127 19.6877 9.32336 16.0006 9.32336ZM16.0006 11.6662C18.3939 11.6662 20.3342 13.6063 20.3342 15.9998C20.3342 18.393 18.3939 20.3334 16.0006 20.3334C13.6071 20.3334 11.667 18.393 11.667 15.9998C11.667 13.6063 13.6071 11.6662 16.0006 11.6662Z" fill="#162340"/>
</svg>
