<svg width="32" height="32" viewBox="0 0 32 32" fill="none" xmlns="http://www.w3.org/2000/svg">
<rect width="32" height="32" rx="8" fill="white"/>
<path d="M20.3509 11.5261C22.0818 11.5261 23.7418 12.2137 24.9657 13.4376C26.1896 14.6615 26.8772 16.3215 26.8772 18.0523V25.6663H22.5263V18.0523C22.5263 17.4754 22.2971 16.9221 21.8892 16.5141C21.4812 16.1061 20.9279 15.8769 20.3509 15.8769C19.774 15.8769 19.2207 16.1061 18.8127 16.5141C18.4047 16.9221 18.1755 17.4754 18.1755 18.0523V25.6663H13.8247V18.0523C13.8247 16.3215 14.5123 14.6615 15.7362 13.4376C16.9601 12.2137 18.6201 11.5261 20.3509 11.5261Z" fill="#162340"/>
<path d="M9.47386 12.614H5.12305V25.6665H9.47386V12.614Z" fill="#162340"/>
<path d="M7.29845 9.35082C8.4999 9.35082 9.47386 8.37685 9.47386 7.17541C9.47386 5.97396 8.4999 5 7.29845 5C6.09701 5 5.12305 5.97396 5.12305 7.17541C5.12305 8.37685 6.09701 9.35082 7.29845 9.35082Z" fill="#162340"/>
</svg>
