<svg width="42" height="36" viewBox="0 0 42 36" fill="none" xmlns="http://www.w3.org/2000/svg">
<g clip-path="url(#clip0_17_84111)">
<path d="M0.608535 25.4172C0.608535 23.1756 0.639919 20.9339 0.595086 18.6923C0.577153 17.7956 0.839424 17.3944 1.79212 17.4145C3.91944 17.4594 6.05123 17.4302 8.17855 17.428C8.73447 17.428 9.31954 17.4661 9.25229 18.2103C9.18504 18.9546 9.53474 19.0016 10.1019 18.9904C11.671 18.9613 13.2402 18.9904 14.8093 18.9433C16.7887 18.8806 18.6201 19.3043 20.1332 20.6066C21.9265 22.1601 23.9126 22.8797 26.3089 22.586C27.7032 22.4156 28.8801 23.0186 29.6198 24.256C29.9516 24.8164 30.2206 24.8254 30.7406 24.4802C33.128 22.8797 35.5422 21.3195 37.952 19.7548C39.2813 18.894 40.2833 18.9747 41.1463 19.979C42.0632 21.0438 42.0183 22.1108 40.9715 23.2697C37.8892 26.6748 34.7913 30.0641 31.7113 33.4692C30.5367 34.7693 29.0504 35.2916 27.3423 35.4239C23.3813 35.7332 19.6019 35.1257 16.0601 33.2876C13.758 32.0928 11.3056 31.8529 8.77258 31.9785C8.22562 32.0076 7.82885 32.048 7.79747 32.7272C7.76833 33.3616 7.29758 33.4849 6.76407 33.4849C5.04474 33.4849 3.32764 33.4647 1.6083 33.4849C0.808039 33.4849 0.592842 33.0858 0.599567 32.364C0.619742 30.0507 0.599567 27.735 0.599567 25.415L0.608535 25.4172ZM24.4103 28.699C23.2155 28.699 22.0207 28.699 20.8236 28.699C20.3888 28.699 20.0951 28.4927 20.1018 28.0265C20.1018 27.6207 20.3888 27.4414 20.7743 27.4167C21.0725 27.3966 21.3706 27.3988 21.671 27.3966C23.5741 27.3966 25.4818 27.4145 27.3827 27.3966C28.703 27.3786 29.2499 26.4999 28.703 25.2849C28.23 24.2448 27.358 23.7158 26.2641 23.8749C23.536 24.2695 21.3011 23.3504 19.2747 21.6019C18.165 20.6448 16.8089 20.257 15.3294 20.257C13.5742 20.257 11.819 20.3063 10.066 20.257C9.2904 20.239 9.0483 20.5439 8.98554 21.2769C8.74344 24.0655 8.47445 26.8518 8.15389 29.6315C8.0575 30.4631 8.2301 30.7882 9.11555 30.6985C11.8479 30.4332 14.5979 30.979 17.0218 32.2676C20.2475 33.9197 23.6683 34.3703 27.237 34.1125C28.638 34.0139 29.8305 33.5992 30.8012 32.5187C33.8207 29.1562 36.8738 25.8319 39.9202 22.4986C40.3797 21.9965 40.7585 21.5436 40.1622 20.8689C39.566 20.1942 39.1154 20.5573 38.5931 20.8958C36.0033 22.5965 33.4119 24.2949 30.8191 25.9911C30.4684 26.1975 30.2089 26.5291 30.0928 26.9191C29.7117 28.1453 28.7994 28.6922 27.5463 28.7124C26.4927 28.7146 25.4481 28.699 24.4103 28.699ZM1.9199 25.4262C1.9199 27.3674 1.93782 29.3087 1.90868 31.2544C1.89747 31.8955 2.03422 32.2295 2.76499 32.1959C3.77149 32.1488 4.78246 32.1713 5.78896 32.1959C6.33144 32.1959 6.59371 32.0345 6.64975 31.4495C7.01962 27.4728 7.40294 23.4984 7.82437 19.5284C7.90059 18.8313 7.65176 18.699 7.04652 18.7102C5.62981 18.7349 4.20861 18.7416 2.78741 18.7102C2.11492 18.6923 1.87954 18.9187 1.89075 19.6069C1.93783 21.5481 1.91093 23.4916 1.91093 25.4329L1.9199 25.4262Z" fill="#162340"/>
<path d="M27.4273 18.4323C25.1049 18.404 22.8873 17.4606 21.2563 15.8069C19.6254 14.1533 18.7126 11.9229 18.7163 9.60028C18.7634 4.80541 22.7804 0.846686 27.5596 0.884794C29.8865 0.902333 32.1112 1.84353 33.7442 3.50133C35.3772 5.15913 36.2848 7.39775 36.2672 9.7247C36.2497 12.0516 35.3085 14.2763 33.6507 15.9093C31.9929 17.5423 29.7543 18.4499 27.4273 18.4323ZM34.9458 9.78634C34.9626 7.82209 34.2108 5.9291 32.8508 4.51172C31.4908 3.09434 29.6305 2.26493 27.6672 2.20064C23.5941 2.09752 20.1106 5.4398 20.0142 9.542C19.9178 13.577 23.3319 17.0784 27.4116 17.13C31.4645 17.1793 34.8853 13.8415 34.9458 9.78634Z" fill="#162340"/>
<path d="M4.84299 20.405C5.54462 20.4812 6.03555 20.9116 6.07365 21.75C6.08279 21.9375 6.05156 22.1248 5.98207 22.2992C5.91258 22.4736 5.80645 22.6311 5.67086 22.7609C5.53527 22.8908 5.37338 22.99 5.19614 23.0519C5.0189 23.1138 4.83043 23.1369 4.64349 23.1197C3.81408 23.0479 3.35679 22.548 3.34109 21.7254C3.3254 20.9879 3.98444 20.405 4.84299 20.405Z" fill="#162340"/>
<path d="M28.7526 11.2143C28.6899 10.6584 28.2528 10.5037 27.8179 10.3939C27.2776 10.2594 26.7195 10.1989 26.2241 9.91194C24.6773 9.01528 24.5765 7.14575 26.0761 6.18633C26.6029 5.85009 26.9235 5.54522 26.8472 4.8817C26.7957 4.43337 27.0154 4.05005 27.5399 4.07247C28.0062 4.0904 28.1855 4.46475 28.1295 4.86152C28.0308 5.57885 28.4276 5.82991 29.0015 6.05856C29.3701 6.23598 29.7089 6.46966 30.0057 6.75122C30.324 7.01798 30.454 7.39458 30.1806 7.74203C29.9071 8.08949 29.5238 8.03792 29.1965 7.76444C28.8199 7.45061 28.4388 7.13455 27.9456 7.06281C27.2732 6.96194 26.5805 7.06281 26.3944 7.80255C26.2084 8.54229 26.8428 8.80681 27.4458 8.97717C27.7686 9.06908 28.107 9.10046 28.4254 9.20133C29.2974 9.48602 29.9497 10.0128 30.0617 10.9812C30.1219 11.4107 30.0462 11.8482 29.8452 12.2325C29.6442 12.6168 29.328 12.9286 28.9409 13.1242C28.4052 13.4268 28.0622 13.7294 28.1429 14.4087C28.1945 14.8413 28.0039 15.2538 27.4704 15.2425C27.0109 15.2425 26.7979 14.8839 26.8562 14.4714C26.9391 13.7765 26.5939 13.4829 25.9932 13.2609C25.6215 13.0895 25.2813 12.8569 24.9867 12.5728C24.6773 12.3105 24.5227 11.9541 24.8186 11.5909C25.1145 11.2278 25.4911 11.3242 25.8071 11.573C26.1656 11.9011 26.5965 12.14 27.0647 12.2701C27.8672 12.4383 28.7773 11.8599 28.7526 11.2143Z" fill="#162340"/>
</g>
<defs>
<clipPath id="clip0_17_84111">
<rect width="41.1991" height="34.6154" fill="white" transform="translate(0.592773 0.884766)"/>
</clipPath>
</defs>
</svg>
