<svg width="42" height="42" viewBox="0 0 42 42" fill="none" xmlns="http://www.w3.org/2000/svg">
<path d="M5.24874 36.7413C10.4975 36.7413 17.4959 34.9917 17.4959 22.7445V8.74773C17.4959 6.56073 16.1732 5.21879 13.9967 5.24853H6.99834C4.81135 5.24853 3.49915 6.56073 3.49915 8.69874V19.2453C3.49915 21.4323 4.81135 22.7445 6.99834 22.7445C8.74794 22.7445 8.74794 22.7445 8.74794 24.4941V26.2437C8.74794 27.9933 6.99834 29.7429 5.24874 29.7429C3.49915 29.7429 3.49915 29.7569 3.49915 31.5468V34.9917C3.49915 36.7413 3.49915 36.7413 5.24874 36.7413Z" stroke="white" stroke-width="3.4992" stroke-linecap="round" stroke-linejoin="round"/>
<path d="M26.244 36.7413C31.4928 36.7413 38.4912 34.9917 38.4912 22.7445V8.74773C38.4912 6.56073 37.1667 5.21879 34.992 5.24853H27.9936C25.8066 5.24853 24.4944 6.56073 24.4944 8.69874V19.2453C24.4944 21.4323 25.8066 22.7445 27.9936 22.7445H29.3058C29.3058 26.6811 29.7432 29.7429 24.4944 29.7429V34.9917C24.4944 36.7413 24.4944 36.7413 26.244 36.7413Z" stroke="white" stroke-width="3.4992" stroke-linecap="round" stroke-linejoin="round"/>
</svg>
